<svg width="300" height="68" viewBox="0 0 300 68" fill="none" xmlns="http://www.w3.org/2000/svg">
<g clip-path="url(#clip0_6034_1102)">
<path d="M0 -0.173035H97.9585C97.9585 22.3183 97.9585 44.8097 97.9585 67.301H0V-0.173035ZM50.1038 13.564C40.6228 14.5328 31.1073 17.4394 23.4602 23.2872C20.173 25.9169 17.1972 29.0657 15.5017 32.9411C14.3945 35.4325 13.9792 38.4429 15.2595 40.9688C17.0588 44.6367 20.692 46.782 24.1869 48.5813C23.4256 50.4498 22.4567 52.2837 22.3529 54.3598C23.0796 54.083 23.9446 53.9792 24.3599 53.2872C25.1903 52.1107 25.5709 50.6574 26.1246 49.3425C28.7197 49.8616 31.2803 50.5882 33.9446 50.4844C31.4533 49.8616 28.9273 49.4463 26.5052 48.5813C27.474 45.6055 28.7543 42.7335 29.9308 39.827C31.0727 37.1626 32.1453 34.4982 33.4948 31.9377C33.3564 35.9169 32.6298 39.827 32.5606 43.8062C32.526 44.602 32.872 45.3287 33.1834 46.0553C34.0138 45.6055 34.9135 45.1211 35.3633 44.2214C37.2318 40.519 38.6159 36.5398 40.7958 33.0104C40.173 36.6782 39.1349 40.346 39.2388 44.1176C39.308 44.7405 39.3772 45.6401 40.173 45.6747C41.7301 45.8823 42.5606 44.3252 43.7716 43.6332C44.6021 43.4948 45.5017 43.737 46.263 43.3218C47.6471 42.4913 48.6505 41.1764 49.654 39.9308C49.9308 40.9688 50.0346 42.0761 50.692 42.9757C51.5917 43.3564 52.5606 42.8373 53.4602 42.6643C54.1869 42.3875 55.1903 42.3529 55.6055 41.5917C56.263 40.2076 56.4014 38.6159 56.7474 37.128C57.5433 38.6851 57.9239 40.865 59.6886 41.6263C61.7993 41.9377 62.9412 39.7232 64.2561 38.4775C65.1903 39.3771 66.1592 40.3114 67.4048 40.7958C70.1038 41.7993 73.218 41.3495 75.6055 39.7924C78.6159 37.8546 80.9689 35.0173 82.4567 31.7647C83.8062 28.8927 84.083 25.3633 82.5606 22.4913C80.6574 18.8581 76.955 16.6436 73.2526 15.1903C65.8477 12.4221 57.7855 12.7335 50.1038 13.564Z" fill="#293897"/>
<path d="M37.7509 18.5121C45.1903 16.1592 53.1142 15.2249 60.8997 15.6747C64.5675 15.917 68.2353 16.4706 71.6955 17.7509C74.8789 18.9619 77.8893 21.0035 79.7578 23.91C82.9412 28.8235 80.3806 36.4706 74.7751 38.3045C71.6263 39.4118 67.7163 38.0969 66.1938 35.0519C64.8789 32.3529 65.6747 28.4775 68.4775 27.0934C69.7924 26.4014 71.7993 26.436 72.6298 27.8547C73.218 28.8235 73.8408 29.7924 74.8097 30.4844C74.8097 28.8235 74.5675 27.0934 75.2249 25.5017C73.1142 26.2284 71.0727 24.6713 68.9619 25.1903C65.8478 25.7786 63.4602 28.6505 63.1488 31.7647C62.8374 33.5294 63.4602 35.2595 63.4256 37.0242C62.872 38.1315 61.3841 39.0657 60.2422 38.2007C59.2388 37.1972 58.9273 35.7439 58.4775 34.4637C58.1315 33.3564 59.6194 32.9412 60.346 32.4568C60.346 33.1488 60.346 33.8754 60.346 34.6021C61.2457 34.3253 62.3183 34.0138 62.4914 32.9412C62.9412 31.8339 63.0104 29.5502 61.2803 29.6886C59.6886 30.173 58.8581 31.8685 57.6817 32.9066C58.0969 29.2734 59.8962 25.8478 59.4118 22.1453C57.6817 22.5606 56.8166 24.2561 56.436 25.8478C55.3979 30.2422 54.8097 34.7059 54.1176 39.135C54.083 40.0346 53.3564 40.519 52.6298 40.8997C52.1799 38.7543 52.5952 36.5744 52.7682 34.3945C52.7682 33.6678 52.9066 32.8374 52.4567 32.2145C51.6609 31.4187 50.346 31.4533 49.4118 31.9723C47.8201 32.872 46.6436 34.3253 45.6747 35.8478C44.4291 37.7855 43.9792 40.0692 43.1488 42.2145C42.872 42.2837 42.3529 42.3529 42.0761 42.4221C41.9723 38.2007 42.9066 34.0484 43.045 29.827C42.1799 29.654 41.0381 29.3426 40.4844 30.3114C38.3391 33.5986 37.128 37.4395 35.1211 40.7959C35.1903 37.2664 35.6055 33.7716 35.8131 30.2768C35.8477 29.4464 35.8824 28.5121 35.1903 27.9239C34.1522 27.7509 33.564 28.7543 33.1488 29.5156C30.0346 35.4671 27.1972 41.5917 24.5329 47.7509C21.6609 46.4706 18.7889 44.5675 17.4741 41.5917C16.3668 38.8927 16.6436 35.8132 17.7509 33.1834C19.1349 29.9654 21.5917 27.3356 24.3599 25.2249C28.3045 22.1107 32.9758 20.0346 37.7509 18.5121Z" fill="#293897"/>
<path d="M46.5744 40.8651C46.9204 37.8893 48.4775 34.9827 50.8997 33.218C50.6228 35.4326 49.7578 37.5433 48.5121 39.3772C48.0623 40.0692 47.301 40.4845 46.5744 40.8651Z" fill="#293897"/>
</g>
<path d="M178.235 20C179.55 18.3391 181.626 17.474 183.702 17.3356C185.606 17.1972 187.612 17.3702 189.239 18.3737C190.969 19.4809 192.007 21.3495 192.491 23.3218C190.969 23.7024 189.481 24.083 187.993 24.429C187.647 23.7024 187.336 22.9065 186.678 22.3875C185.467 21.3495 183.46 21.5917 182.491 22.8373C181.419 24.1176 181.384 25.8823 181.384 27.474C181.419 28.8581 181.453 30.3806 182.215 31.5917C183.253 33.2526 186.021 33.3564 187.128 31.7301C187.682 30.9688 187.924 30.0346 188.201 29.1349C189.723 29.6194 191.211 30.173 192.699 30.6574C192.353 32.9065 191.211 35.0865 189.273 36.3322C187.543 37.4048 185.433 37.4394 183.495 37.2664C181.626 37.128 179.758 36.3668 178.547 34.8789C176.644 32.6989 176.09 29.6886 176.159 26.8512C176.194 24.429 176.678 21.9031 178.235 20Z" fill="#293897"/>
<path d="M116.471 17.647C118.789 17.647 121.073 17.5778 123.391 17.6816C123.945 20.3114 124.567 22.9412 125.156 25.5363C125.433 26.7474 125.675 27.9931 126.055 29.2041C127.059 25.3633 127.785 21.4879 128.72 17.647C131.003 17.647 133.322 17.6124 135.606 17.647C135.606 24.083 135.606 30.519 135.606 36.955C134.187 36.955 132.768 36.955 131.384 36.955C131.315 32.1453 131.488 27.3356 131.315 22.4913C130.069 27.2664 129.17 32.1799 127.924 36.955C126.644 36.955 125.363 36.955 124.083 36.955C123.045 32.5259 122.076 28.0969 121.073 23.6332C120.969 23.2526 120.865 22.8374 120.727 22.4567C120.623 27.2664 120.761 32.0761 120.657 36.8858C119.239 36.9204 117.82 36.9204 116.436 36.8858C116.436 30.519 116.436 24.083 116.471 17.647Z" fill="#293897"/>
<path d="M143.737 17.6817C145.675 17.6471 147.612 17.6125 149.55 17.6817C151.661 24.1177 153.806 30.5537 155.917 36.9896C154.083 36.9896 152.284 36.9896 150.45 36.9896C150.138 35.9516 149.862 34.8789 149.585 33.8408C147.578 33.8062 145.536 33.8062 143.529 33.8408C143.253 34.8789 142.976 35.917 142.734 36.955C140.934 36.9896 139.17 36.955 137.37 36.9896C139.446 30.519 141.661 24.1177 143.737 17.6817ZM144.671 29.6194C145.917 29.6194 147.163 29.6194 148.408 29.6194C147.889 27.3011 147.232 25.0173 146.574 22.699C145.848 24.9827 145.294 27.3011 144.671 29.6194Z" fill="#293897"/>
<path d="M157.716 17.6471C159.446 17.6471 161.176 17.6471 162.907 17.6471C162.941 20.0692 162.872 22.4568 162.941 24.8789C164.221 23.3564 165.363 21.7301 166.574 20.1384C167.197 19.3426 167.716 18.4429 168.478 17.7163C168.962 17.5779 169.481 17.6125 170 17.6125C171.799 17.6471 173.599 17.5779 175.398 17.6471C174.048 19.3772 172.561 21.0035 171.176 22.6644C170.588 23.391 169.896 24.0139 169.412 24.8443C169.481 25.5018 169.896 26.0554 170.208 26.6436C172.076 30.0692 173.945 33.4948 175.744 36.955C173.599 36.955 171.453 36.955 169.273 36.955C168.062 34.3253 166.92 31.6609 165.675 29.0312C164.81 29.9654 164.014 30.8997 163.218 31.9031C162.872 32.2838 162.872 32.872 162.872 33.3564C162.872 34.5675 162.907 35.7786 162.872 36.955C161.142 36.9204 159.446 36.955 157.716 36.955C157.647 30.5191 157.682 24.0831 157.716 17.6471Z" fill="#293897"/>
<path d="M202.63 17.647C206.298 17.647 210 17.647 213.668 17.647C213.668 19.2041 213.668 20.7958 213.668 22.3529C211.73 22.3875 209.758 22.3183 207.82 22.3875C207.82 27.2318 207.855 32.0761 207.82 36.9204C206.09 36.955 204.36 36.955 202.63 36.9204C202.595 30.519 202.595 24.083 202.63 17.647Z" fill="#293897"/>
<path d="M215.952 17.6816C218.927 17.647 221.903 17.6816 224.879 17.647C226.436 17.647 228.131 18.0623 229.135 19.3079C230.45 20.865 230.554 23.045 230.311 24.9827C230.104 26.7474 229.031 28.4775 227.37 29.2041C225.433 30.0692 223.253 29.6886 221.211 29.7924C221.176 32.2145 221.246 34.6021 221.176 37.0242C219.446 37.0242 217.682 37.0242 215.952 37.0242C215.952 30.5536 215.952 24.1176 215.952 17.6816ZM221.246 21.5571C221.211 23.0104 221.211 24.429 221.246 25.8823C222.284 25.8823 223.426 26.0207 224.394 25.5363C225.779 24.7751 225.64 22.2837 224.118 21.7301C223.183 21.4187 222.18 21.5571 221.246 21.5571Z" fill="#293897"/>
<path d="M230.727 17.6817C232.526 17.6471 234.291 17.6471 236.09 17.6817C237.266 20.5882 238.27 23.5986 239.481 26.5052C240.45 23.5986 241.315 20.6228 242.249 17.7163C244.048 17.6817 245.813 17.6817 247.612 17.7163C245.813 22.9758 243.841 28.1661 241.972 33.391C241.419 34.7751 240.761 36.3322 239.343 37.0588C237.474 37.8547 235.363 37.8547 233.426 37.301C233.391 36.0554 233.391 34.8443 233.426 33.5986C234.533 33.737 236.021 34.1176 236.747 33.0104C237.474 32.0761 236.713 31.0035 236.332 30.0692C234.464 25.9515 232.561 21.8339 230.727 17.6817Z" fill="#293897"/>
<path d="M249.896 17.6471C255.156 17.6125 260.45 17.6471 265.709 17.6471C265.709 24.0831 265.744 30.5191 265.709 36.9897C263.979 36.9551 262.215 36.9897 260.484 36.9551C260.484 32.0762 260.519 27.1627 260.45 22.2838C258.651 22.2492 256.886 22.2146 255.086 22.2838C255.086 27.1627 255.086 32.0416 255.086 36.9205C253.356 36.9551 251.626 36.9551 249.896 36.9205C249.862 30.5191 249.896 24.0831 249.896 17.6471Z" fill="#293897"/>
<path d="M268.512 17.6471C273.772 17.6471 279.066 17.6125 284.325 17.6471C284.36 24.0831 284.36 30.4845 284.325 36.9204C282.595 36.955 280.83 36.955 279.1 36.9204C279.066 32.007 279.1 27.1281 279.066 22.2146C277.266 22.2146 275.467 22.2146 273.668 22.2146C273.633 27.1281 273.702 32.0416 273.633 36.9551C271.903 36.9551 270.208 36.9551 268.478 36.9551C268.443 30.5191 268.478 24.0831 268.512 17.6471Z" fill="#293897"/>
<path d="M113.46 43.7716C115.19 42.9066 116.747 41.7647 118.201 40.4844C118.616 40.7267 119.031 40.9689 119.446 41.1765C118.062 43.91 116.228 46.436 115.26 49.3772C116.54 49.3772 117.336 48.2353 118.235 47.5087C120.242 45.7786 121.488 43.4256 122.837 41.2111C123.183 41.4533 123.564 41.6955 123.91 41.9377C123.183 43.218 122.422 44.4637 121.73 45.744C121.038 47.0242 120.242 48.3045 119.965 49.7578C120.83 49.8616 121.592 49.3426 122.318 48.9273C122.422 49.2388 122.526 49.5848 122.664 49.8962C124.671 48.7889 125.709 46.609 127.093 44.8789C127.405 45.0519 127.716 45.2249 128.028 45.3979C127.439 46.7474 126.609 47.9931 126.367 49.4464C126.851 49.827 127.509 49.3426 128.062 49.2734C127.647 50.346 126.471 51.0035 125.329 50.9343C124.637 50.1038 125.398 49.0311 125.675 48.1661C124.81 48.9965 124.221 50.173 123.114 50.7613C122.491 51.1073 121.834 50.7613 121.176 50.6574C120.519 50.7266 119.896 51.1419 119.239 51.0035C118.789 50.9343 118.581 50.4844 118.616 50.0692C118.651 49.2042 119.066 48.4083 119.343 47.6125C118.132 48.6505 117.059 49.8962 115.64 50.692C115.121 50.9689 114.429 51.2457 113.875 50.8651C113.564 50.3114 113.668 49.654 113.841 49.1004C114.498 47.0588 115.709 45.2249 116.574 43.2872C114.81 44.2215 113.253 45.4671 111.592 46.5398C110.934 46.1592 110.277 45.7786 109.654 45.3979C110.969 44.8789 112.249 44.4291 113.46 43.7716Z" fill="#293897"/>
<path d="M289.792 40.4844C290.242 40.5536 290.727 40.6574 291.176 40.7266V41.2457C290.138 43.391 288.927 45.4671 287.82 47.5779C287.578 48.1661 286.955 48.3737 286.401 48.5467C286.54 47.6817 286.92 46.8512 287.336 46.09C288.304 44.2907 288.927 42.3183 289.792 40.4844Z" fill="#293897"/>
<path d="M198.824 40.692C199.239 40.8996 199.619 41.1072 200.035 41.3495C198.962 43.4256 197.785 45.4325 196.713 47.5086C196.332 48.2353 196.159 49.0311 196.228 49.827C197.578 49.3079 198.408 48.0969 199.343 47.0588C200.83 45.3287 201.869 43.2872 203.01 41.3495C203.391 41.5917 203.806 41.7993 204.221 42.0415C203.564 43.2872 202.803 44.4982 202.145 45.7785C201.488 47.0588 200.692 48.3391 200.519 49.827C201.211 49.827 201.869 49.5848 202.491 49.3425C202.18 49.9654 201.765 50.5882 201.073 50.865C200.554 51.0726 199.723 51.3841 199.343 50.7612C198.824 49.7578 199.55 48.7543 199.862 47.7854C198.962 48.5813 198.201 49.5501 197.301 50.346C196.886 50.692 196.401 51.038 195.848 51.1072C195.363 51.1764 194.879 50.8304 194.844 50.346C194.775 49.4117 195.26 48.5121 195.502 47.647C194.187 48.9619 192.907 50.5536 191.038 51.0726C190.381 51.2457 189.343 51.1418 189.17 50.346C189.031 49.5501 189.377 48.5467 190.138 48.1661C190.484 48.3045 190.83 48.5467 191.142 48.7197C191.003 49.1003 190.865 49.4809 190.727 49.8962C192.042 50.173 193.08 49.1003 193.91 48.2353C195.917 45.9169 197.474 43.3218 198.824 40.692Z" fill="#293897"/>
<path d="M163.218 43.1142C163.875 42.9411 164.325 42.3875 164.844 41.9723C165.017 42.1107 165.19 42.2491 165.363 42.4221C164.844 42.9757 164.291 43.6332 163.495 43.8408C162.837 44.0138 162.007 44.0484 161.488 43.5294C161.211 43.1488 161.142 42.6643 161.003 42.2145C161.349 42.1799 161.661 42.1453 162.007 42.1453C162.353 42.4567 162.63 43.1142 163.218 43.1142Z" fill="#293897"/>
<path d="M255.398 44.7405C257.232 43.5986 259.343 43.0104 261.488 42.9066C261.315 43.3218 261.142 43.737 260.969 44.1522C260 44.1522 259.031 44.083 258.132 44.3598C257.336 44.6021 256.574 45.0173 255.813 45.3979C255.64 45.1903 255.502 44.9827 255.398 44.7405Z" fill="#293897"/>
<path d="M166.332 44.6367C166.713 44.8097 167.059 44.9481 167.439 45.1211C167.474 45.8477 167.509 46.5744 167.578 47.301C168.374 46.6436 169.1 45.9515 169.827 45.2249C170.104 45.3633 170.415 45.5363 170.692 45.6747C169.792 46.5744 168.72 47.2664 167.889 48.2353C167.578 48.5467 167.751 48.9965 167.924 49.3425C168.339 50.1038 169.308 49.3771 169.965 49.3425C169.654 50.2076 168.927 51.0034 167.958 51.0034C167.128 50.8996 166.99 49.8616 166.678 49.2733C166.055 49.8962 165.467 50.6228 164.637 50.9688C164.048 51.1765 163.529 50.6228 162.941 50.6228C162.284 50.7266 161.626 50.9688 160.969 51.1072C160.623 50.173 161.176 49.3079 161.626 48.5467C160.83 49.2387 160.138 50.0692 159.239 50.6574C158.72 51.0034 158.097 51.0034 157.509 51.0726C157.405 49.6194 158.201 48.4083 158.824 47.1626C159.204 46.4706 159.516 45.7439 160 45.1211C160.311 45.2249 160.623 45.3633 160.934 45.4671C160.311 46.8166 159.446 48.0623 158.997 49.4809C160.104 49.1003 160.865 48.2007 161.661 47.3702C162.18 46.8512 162.595 46.263 163.045 45.6747C163.356 45.8131 163.668 45.9861 163.945 46.1245C163.46 47.2664 162.664 48.3045 162.318 49.5156C162.353 49.5848 162.422 49.6886 162.457 49.7232C163.114 49.5502 163.702 49.2387 164.325 48.9965C164.429 49.3079 164.567 49.6194 164.671 49.9308C165.329 49.4463 166.09 48.9965 166.436 48.2353C166.574 47.0242 166.298 45.8131 166.332 44.6367Z" fill="#293897"/>
<path d="M202.976 48.4083C203.668 46.5744 205.502 45.4671 207.266 44.8097C207.336 45.0519 207.405 45.3287 207.474 45.5709C206.09 46.2976 204.602 47.2664 204.187 48.8927C203.979 49.5156 204.464 50.346 205.19 50C206.644 49.4118 206.817 47.6817 207.059 46.3668C207.439 46.1938 207.82 46.09 208.235 45.9862C208.305 47.0588 208.201 48.2007 207.543 49.1003C206.747 50.4152 205.087 51.3841 203.564 50.8651C202.664 50.4152 202.699 49.2042 202.976 48.4083Z" fill="#293897"/>
<path d="M220.173 47.0588C221.073 46.0208 222.318 45.3287 223.599 44.8097C223.668 45.0519 223.737 45.3287 223.806 45.5709C222.422 46.2976 220.9 47.2664 220.519 48.8927C220.311 49.481 220.796 50.3114 221.488 50C222.941 49.4118 223.253 47.6817 223.356 46.2976C223.772 46.1938 224.221 46.09 224.637 45.9862C224.637 47.1626 224.464 48.4083 223.702 49.3426C222.872 50.4844 221.419 51.2457 220.035 50.8651C219.55 50.7266 219.308 50.2768 219.239 49.827C219.066 48.8235 219.516 47.7855 220.173 47.0588Z" fill="#293897"/>
<path d="M260.969 48.2699C261.696 46.5398 263.46 45.5363 265.121 44.8097C265.225 45.0519 265.294 45.3287 265.398 45.5709C264.429 46.0554 263.529 46.6436 262.803 47.4741C263.46 47.4741 264.152 47.4741 264.81 47.4741C264.844 47.0934 264.879 46.6782 264.948 46.2976C265.363 46.1938 265.779 46.1246 266.194 46.0208C266.263 47.1626 266.09 48.3737 265.329 49.308C264.464 50.519 262.803 51.4187 261.35 50.7959C260.554 50.2076 260.657 49.0657 260.969 48.2699ZM262.145 48.8235C261.903 49.3772 262.284 50.2768 262.976 50.0346C263.841 49.827 264.291 48.9619 264.637 48.2007C263.772 48.2353 262.837 48.2699 262.145 48.8235Z" fill="#293897"/>
<path d="M273.564 46.955C274.464 45.9516 275.675 45.2941 276.92 44.8097C276.99 45.0519 277.093 45.3287 277.163 45.5709C276.194 46.0554 275.26 46.6782 274.567 47.5087C275.225 47.4741 275.882 47.4395 276.54 47.4048C276.574 47.0242 276.609 46.6782 276.644 46.2976C277.093 46.1938 277.509 46.09 277.958 45.9516C277.958 47.0934 277.785 48.3045 277.059 49.2042C276.298 50.3114 274.983 51.1073 273.633 50.8997C273.08 50.8651 272.63 50.4152 272.561 49.8962C272.318 48.8927 272.803 47.7509 273.564 46.955ZM273.806 48.7197C273.875 49.2042 273.772 50.0346 274.464 50.0692C275.467 50.0346 275.986 48.9965 276.367 48.2007C275.502 48.2007 274.637 48.4083 273.806 48.7197Z" fill="#293897"/>
<path d="M278.858 47.4048C279.758 46.1592 281.176 45.3633 282.561 44.8097C282.63 45.0865 282.699 45.3287 282.803 45.6055C281.799 46.0554 280.9 46.6782 280.208 47.5433C280.865 47.5087 281.522 47.4741 282.145 47.4741C282.18 47.0934 282.249 46.7128 282.284 46.3322C282.734 46.2284 283.149 46.1246 283.599 46.0208C283.599 47.0934 283.46 48.2353 282.803 49.135C282.145 50.1038 281.107 50.9343 279.896 50.9689C279.308 51.0035 278.512 50.9343 278.27 50.2768C277.958 49.308 278.27 48.2007 278.858 47.4048ZM279.55 48.7197C279.55 49.135 279.55 49.5502 279.585 49.9654C279.965 50 280.415 50.1384 280.761 49.9308C281.419 49.5848 281.73 48.8581 282.076 48.2353C281.211 48.2007 280.346 48.4083 279.55 48.7197Z" fill="#293897"/>
<path d="M128.408 49.1696C128.927 47.6471 129.758 46.2976 130.588 44.9135C130.934 45.0865 131.28 45.2595 131.592 45.3979C130.865 46.782 129.965 48.0969 129.55 49.6194C131.419 48.962 132.422 47.1626 133.495 45.6056C133.806 45.744 134.152 45.917 134.464 46.0554C133.045 48.7889 131.488 51.4533 130.484 54.3599H130.035C129.758 54.2907 129.516 54.1869 129.239 54.1177C129.723 52.2492 130.865 50.6921 131.765 48.9966C130.727 49.7232 129.827 51.0727 128.408 50.8651C127.993 50.3806 128.235 49.7232 128.408 49.1696Z" fill="#293897"/>
<path d="M136.332 44.9135C136.678 45.0865 137.024 45.2249 137.37 45.3979C136.644 46.782 135.744 48.1315 135.294 49.654C137.163 48.9966 138.166 47.1972 139.239 45.6402C139.585 45.7786 139.896 45.917 140.242 46.09C138.824 48.8235 137.266 51.4879 136.263 54.4291H135.779C135.502 54.3599 135.26 54.2561 134.983 54.1869C135.536 52.353 136.609 50.7613 137.509 49.1004C136.505 49.827 135.64 51.0381 134.291 51.0035C133.737 50.7267 133.875 50.0346 134.014 49.5502C134.533 47.8547 135.467 46.4014 136.332 44.9135Z" fill="#293897"/>
<path d="M146.505 46.8166C147.37 45.917 148.477 45.0865 149.758 45.0865C150.173 45.0519 150.588 45.3287 150.692 45.744C150.934 46.4014 150.45 46.9896 150.173 47.5433C149.585 47.1973 149.273 46.6436 149.1 45.9862C147.647 46.7128 146.609 48.2699 146.678 49.9308C147.889 50.0692 149.031 49.5502 150.138 49.135C149.931 49.481 149.896 50 149.481 50.2076C148.512 50.6921 147.439 51.0381 146.332 50.9689C145.848 50.9689 145.363 50.6575 145.26 50.173C144.948 48.9274 145.675 47.7163 146.505 46.8166Z" fill="#293897"/>
<path d="M179.896 45.0173C180.242 45.1557 180.588 45.2941 180.9 45.4325C180.519 46.2283 180.138 47.0242 179.758 47.7854C180.415 47.6816 181.073 47.647 181.695 47.474C182.215 46.9204 182.457 46.1591 182.803 45.5017C183.114 45.6401 183.46 45.7439 183.772 45.8823C183.253 47.1972 182.491 48.4083 182.042 49.7578C182.734 49.6193 183.391 49.3771 184.048 49.1695C183.806 50.3114 182.63 50.7958 181.626 50.9688C181.176 51.0726 180.692 50.7266 180.692 50.2768C180.761 49.5847 181.107 48.9619 181.315 48.3391C180.657 48.5121 179.965 48.5467 179.377 48.8927C178.858 49.5847 178.581 50.3806 178.166 51.1418C177.785 51.0034 177.405 50.8996 177.024 50.7612C177.958 48.8235 178.962 46.955 179.896 45.0173Z" fill="#293897"/>
<path d="M210.865 45.0173C211.211 45.1557 211.522 45.2941 211.868 45.4325C211.488 46.2283 211.107 46.9896 210.727 47.7854C211.384 47.6816 212.076 47.6124 212.734 47.5432C213.08 46.8858 213.391 46.2283 213.702 45.5709C214.048 45.6747 214.394 45.7785 214.74 45.8823C214.221 47.1972 213.426 48.4083 213.01 49.7924C213.702 49.6539 214.36 49.4117 215.017 49.1695C214.775 50.2768 213.633 50.7612 212.63 50.9688C212.18 51.0726 211.661 50.7612 211.661 50.2768C211.73 49.5847 212.076 48.9619 212.318 48.3045C211.661 48.4429 210.969 48.5467 210.381 48.8581C209.827 49.5155 209.585 50.346 209.17 51.1072C208.789 51.0034 208.374 50.865 207.993 50.7266C208.927 48.8235 209.896 46.9204 210.865 45.0173Z" fill="#293897"/>
<path d="M225.294 49.8962C227.266 48.7543 228.304 46.609 229.689 44.8789C230 45.0519 230.311 45.2249 230.623 45.4325C230.035 46.8512 228.962 48.1661 229.066 49.7578C229.619 49.5848 230.138 49.3772 230.692 49.1696C230.381 50.346 229.135 51.0035 227.993 50.9689C227.197 50.1384 228.028 49.0658 228.304 48.2007C227.509 48.9966 226.955 50 226.021 50.6575C225.467 51.0035 224.602 51.2457 224.083 50.7267C223.91 50.3806 223.875 49.9654 223.772 49.5502C224.152 49.3426 224.533 49.135 224.913 48.9273C225.052 49.2388 225.156 49.5848 225.294 49.8962Z" fill="#293897"/>
<path d="M233.08 44.9827C233.391 45.1211 233.737 45.2941 234.048 45.4326C233.287 46.9896 232.076 48.4083 231.972 50.173C232.318 50.1038 232.734 50.1038 233.08 49.8962C233.564 49.5502 233.841 48.962 234.118 48.4429C233.702 48.2353 233.322 47.9931 232.941 47.6817C233.322 47.4741 233.668 47.1627 234.118 47.0935C234.74 47.0243 235.398 47.2665 236.021 47.1281C236.851 46.8858 237.474 46.2284 238.062 45.6402C238.374 45.7786 238.65 45.917 238.962 46.0208C238.374 47.3011 237.336 48.4083 237.197 49.8616C237.751 49.654 238.304 49.4464 238.893 49.2388C238.547 50.5883 236.99 51.1073 235.744 50.8305C235.709 49.5156 236.471 48.4429 237.128 47.3703C236.644 47.5779 236.159 47.7163 235.709 48.0277C235.259 48.6159 235.052 49.3772 234.533 49.8962C233.841 50.5883 232.872 51.1073 231.868 50.8997C231.107 50.7267 230.727 49.8616 230.934 49.135C231.28 47.6471 232.249 46.3322 233.08 44.9827Z" fill="#293897"/>
<path d="M241.661 45.0173C241.972 45.1557 242.318 45.2941 242.63 45.4671C242.249 46.2629 241.834 47.0588 241.419 47.8546C242.111 47.7508 242.803 47.647 243.529 47.5432C243.841 46.8858 244.152 46.2283 244.498 45.5709C244.844 45.6747 245.156 45.8131 245.502 45.9169C244.948 47.2318 244.152 48.4429 243.806 49.827C244.498 49.6539 245.156 49.4117 245.779 49.1695C245.467 50.3114 244.325 50.865 243.253 50.9688C242.837 51.0034 242.388 50.7612 242.422 50.3114C242.457 49.6193 242.837 48.9619 243.08 48.3045C242.422 48.4429 241.765 48.5121 241.176 48.8235C240.588 49.4809 240.311 50.3114 239.931 51.0726C239.55 50.9688 239.135 50.8304 238.754 50.7266C239.654 48.8235 240.657 46.9204 241.661 45.0173Z" fill="#293897"/>
<path d="M253.668 45.0173C253.979 45.2249 254.325 45.3979 254.637 45.6055C254.221 46.3668 253.772 47.128 253.46 47.9584C254.325 47.3356 255.017 46.436 255.986 45.9169C256.436 45.6401 256.92 45.7785 257.405 45.8131C257.336 46.7474 256.851 47.5432 256.367 48.3391C257.093 47.7508 257.716 47.0588 258.547 46.6436C258.962 46.4014 259.446 46.5744 259.896 46.6436C259.723 47.82 258.962 48.7543 258.477 49.7924C259.17 49.6193 259.827 49.3771 260.484 49.1695C260.138 50.346 258.927 50.8304 257.855 51.0726C257.474 51.1764 256.92 50.9688 256.99 50.4844C257.059 49.5847 257.751 48.8581 258.028 47.993C256.609 48.5813 255.848 50 254.775 51.0034C254.429 51.0034 254.048 50.8996 253.702 50.8304C254.256 49.6885 254.913 48.6159 255.329 47.4394C253.875 48.3391 252.803 49.7232 251.799 51.0726C251.453 50.9688 251.107 50.865 250.761 50.7612C251.73 48.8581 252.664 46.9204 253.668 45.0173Z" fill="#293897"/>
<path d="M266.92 49.8962C268.789 48.6505 269.896 46.6436 271.176 44.8789C271.522 45.0519 271.834 45.1903 272.18 45.3633C271.557 46.7474 270.657 48.0969 270.519 49.654C271.073 49.5502 271.592 49.4118 272.145 49.2734C271.765 50.4844 270.45 50.9343 269.273 50.9689C268.927 49.9654 269.412 48.9966 269.827 48.0969C269.17 48.7543 268.65 49.5156 268.028 50.173C267.509 50.7267 266.678 51.0727 265.917 50.8651C265.398 50.6229 265.259 50 265.432 49.5156C265.64 49.2388 266.021 49.135 266.298 48.962C266.54 49.308 266.713 49.6194 266.92 49.8962Z" fill="#293897"/>
<path d="M152.042 46.6782C152.768 45.9862 153.633 45.2941 154.671 45.2595C155.571 45.3287 156.436 45.6401 157.266 45.9862C156.678 47.2318 155.882 48.4083 155.571 49.7924C156.194 49.6194 156.782 49.4118 157.405 49.2042C157.059 50.4152 155.606 51.3495 154.394 50.8305C154.187 50.3114 154.429 49.7924 154.533 49.2734C153.702 50.0346 152.803 50.9343 151.626 51.0035C150.83 51.0727 150.381 50.2422 150.45 49.5502C150.484 48.3737 151.28 47.4394 152.042 46.6782ZM154.118 46.2976C153.218 46.8858 152.422 47.7163 152.007 48.6851C151.799 49.135 152.042 49.5848 152.18 50C153.875 49.3426 155.156 47.8547 155.779 46.1592C155.225 46.09 154.602 45.917 154.118 46.2976Z" fill="#293897"/>
<path d="M171.28 47.3357C172.076 46.4014 173.08 45.5017 174.325 45.2595C175.294 45.2249 176.228 45.6055 177.128 45.8824C176.609 47.1972 175.779 48.3391 175.433 49.7232C176.055 49.5848 176.644 49.4118 177.232 49.2734C176.886 50.346 175.779 51.0381 174.671 50.9343C173.945 50.8305 174.221 49.9654 174.187 49.4464C173.46 50.0346 172.734 50.7267 171.765 50.8997C171.28 51.0035 170.657 50.8651 170.45 50.346C170.035 49.3426 170.554 48.1315 171.28 47.3357ZM173.806 46.4014C172.699 47.1972 171.488 48.4083 171.869 49.9308C173.737 49.5156 175.121 47.8547 175.536 46.0554C174.983 46.0554 174.325 46.0208 173.806 46.4014Z" fill="#293897"/>
<path d="M216.09 46.0208C217.059 45.4671 218.166 45.0173 219.308 45.3633C219.239 45.917 219.204 46.5052 218.858 46.9204C218.062 47.9239 216.886 48.6505 216.471 49.9308C217.336 49.8616 218.131 49.5502 218.927 49.2734C218.72 49.654 218.616 50.173 218.201 50.3806C217.474 50.7958 216.609 51.1073 215.779 50.9689C215.26 50.8997 214.948 50.2768 215.156 49.7924C215.606 48.3045 217.059 47.5086 217.889 46.263C217.405 46.3668 216.955 46.4706 216.505 46.609C216.332 46.3668 216.194 46.1938 216.09 46.0208Z" fill="#293897"/>
<path d="M285.467 49.6886C285.917 49.6886 286.367 49.6886 286.817 49.7232C286.678 50.1384 286.609 50.6229 286.263 50.9343C285.917 51.2457 285.432 51.0727 285.017 51.0381C285.156 50.5536 285.294 50.1038 285.467 49.6886Z" fill="#293897"/>
<defs>
<clipPath id="clip0_6034_1102">
<rect width="97.9239" height="67.474" fill="white"/>
</clipPath>
</defs>
</svg>
